<svg width="209" height="48" viewBox="0 0 209 48" fill="none" xmlns="http://www.w3.org/2000/svg">
<path d="M32.0219 22.3475L36.3754 12.0158L32.9526 12.0079L30.8153 17.3472L28.7095 12H25.2788L29.5928 22.3475H32.0219Z" fill="#2A48DF"/>
<path d="M43.904 19.5633L40.9149 19.5554V18.5301L43.7384 18.538V15.7697L40.9228 15.7619V14.7918H43.9119V12.0314L37.776 12.0156L37.7603 22.3473H43.8961L43.904 19.5633Z" fill="#2A48DF"/>
<path d="M49.5051 19.3904L51.4058 22.3558H55.3492L52.1945 18.2468C52.7017 18.0751 53.1482 17.7601 53.48 17.3398C53.8994 16.767 54.1133 16.0696 54.0873 15.3602C54.0901 14.9239 54.0125 14.4908 53.8586 14.0825C53.7127 13.6754 53.4797 13.305 53.176 12.9972C52.8722 12.6893 52.505 12.4514 52.0998 12.3001C51.6107 12.1179 51.0917 12.0296 50.5698 12.0399H46.3662V22.3558H49.5209L49.5051 19.3904ZM49.5051 14.611H49.6628C49.9966 14.5862 50.3292 14.6721 50.6092 14.8555C50.7014 14.9313 50.7739 15.0282 50.8206 15.1381C50.8673 15.2479 50.8868 15.3674 50.8774 15.4864C50.8873 15.6062 50.8672 15.7266 50.819 15.8367C50.7708 15.9468 50.696 16.0433 50.6014 16.1173C50.3211 16.2926 49.9928 16.3754 49.6628 16.3539H49.5051V14.611Z" fill="#2A48DF"/>
<path d="M61.7461 22.3549L61.754 17.4967L65.5948 12.0626L61.8092 12.0548L60.1924 14.4445L58.5678 12.0469H54.79L58.5993 17.4967L58.5914 22.3549H61.7461Z" fill="#2A48DF"/>
<path d="M48.1002 33.3098C48.3869 32.6368 48.5319 31.9119 48.5261 31.1803C48.5315 30.4471 48.3894 29.7202 48.1081 29.043C47.8343 28.3953 47.4349 27.8083 46.9329 27.3158C46.4137 26.8155 45.7996 26.424 45.1269 26.1643C44.4061 25.8814 43.6377 25.7395 42.8634 25.7463C42.0899 25.7401 41.3221 25.8792 40.5999 26.1564C39.9369 26.4106 39.3318 26.7958 38.821 27.2891C38.3101 27.7823 37.9039 28.3735 37.6266 29.0272C37.3435 29.7014 37.1987 30.4255 37.2008 31.1567C37.1968 31.8898 37.3389 32.6164 37.6188 33.294C37.8956 33.9377 38.2947 34.5216 38.7939 35.0133C39.3048 35.5185 39.9142 35.9131 40.5842 36.1727C41.3086 36.4525 42.079 36.5943 42.8555 36.5907C43.6264 36.5961 44.3915 36.457 45.1111 36.1806C45.7825 35.9183 46.3961 35.5271 46.9172 35.0291C47.422 34.5405 47.8242 33.9559 48.1002 33.3098V33.3098ZM45.0717 32.1031C44.9474 32.3833 44.7676 32.6355 44.5433 32.8444C44.3153 33.0599 44.0474 33.2287 43.7546 33.3413C43.4591 33.4511 43.1471 33.5098 42.8319 33.5148C42.5153 33.5157 42.2018 33.454 41.9091 33.3334C41.6165 33.2241 41.3485 33.0579 41.1204 32.8444C40.8965 32.6186 40.7196 32.3505 40.5999 32.0558C40.4904 31.7718 40.4394 31.4687 40.4501 31.1646C40.4482 30.8438 40.5154 30.5264 40.6472 30.2339C40.8958 29.6707 41.3541 29.2265 41.9249 28.9957C42.2183 28.8784 42.5317 28.8195 42.8476 28.8222V28.8222C43.4786 28.8161 44.087 29.0567 44.5433 29.4926C44.7653 29.7018 44.9424 29.954 45.0638 30.2339C45.1922 30.53 45.2567 30.8498 45.2531 31.1724C45.2592 31.492 45.1974 31.8092 45.0717 32.1031V32.1031Z" fill="#2A48DF"/>
<path d="M60.6009 33.3257C60.8877 32.6527 61.0326 31.9278 61.0268 31.1962C61.0314 30.4656 60.8893 29.7415 60.6088 29.0668C60.335 28.4191 59.9356 27.8321 59.4337 27.3396C58.9126 26.8415 58.299 26.4503 57.6276 26.1881C56.9043 25.9046 56.1332 25.7627 55.3563 25.7701V25.7701C54.5824 25.7594 53.8137 25.8987 53.0928 26.1802C52.4222 26.4359 51.8105 26.825 51.2946 27.3238C50.7839 27.8278 50.3783 28.4283 50.1015 29.0904C49.8247 29.7524 49.6821 30.4629 49.6821 31.1805C49.6821 31.898 49.8247 32.6085 50.1015 33.2705C50.3783 33.9326 50.7839 34.5331 51.2946 35.0371C51.8034 35.5354 52.4067 35.9269 53.0691 36.1886C53.7925 36.4721 54.5636 36.614 55.3405 36.6066C56.1117 36.6153 56.8773 36.4761 57.5961 36.1965C58.2689 35.9407 58.8832 35.5517 59.4021 35.0529C59.9145 34.5642 60.3224 33.9766 60.6009 33.3257ZM57.5724 32.1269C57.4481 32.4071 57.2684 32.6593 57.044 32.8682C56.816 33.0837 56.5481 33.2525 56.2553 33.3651C55.9606 33.4767 55.6478 33.5329 55.3326 33.5307C55.016 33.542 54.7008 33.4827 54.4099 33.3572C54.1173 33.2479 53.8492 33.0817 53.6212 32.8682C53.3991 32.6408 53.2225 32.3731 53.1007 32.0795C52.9723 31.7835 52.9078 31.4637 52.9114 31.141C52.9074 30.82 52.9748 30.5022 53.1086 30.2104C53.23 29.9305 53.4071 29.6783 53.6291 29.469C53.8564 29.2527 54.1245 29.0838 54.4177 28.9722C54.7122 28.8587 55.0249 28.7999 55.3405 28.7986V28.7986C55.6569 28.7986 55.9703 28.8602 56.2632 28.98C56.5541 29.0929 56.8215 29.2587 57.0519 29.469C57.2767 29.6942 57.4537 29.9625 57.5724 30.2577C57.6994 30.5529 57.7648 30.8709 57.7648 31.1923C57.7648 31.5136 57.6994 31.8316 57.5724 32.1269V32.1269Z" fill="#2A48DF"/>
<path d="M70.264 34.7924C70.7243 34.3156 71.0909 33.7564 71.3445 33.1441C71.6006 32.5263 71.7345 31.8648 71.7388 31.1961C71.739 30.5218 71.605 29.8542 71.3445 29.2322C71.0848 28.6259 70.7159 28.0725 70.2561 27.5997C69.8055 27.1284 69.2704 26.7458 68.6788 26.4719C68.0556 26.1849 67.3774 26.0369 66.6913 26.0381H62.6533V36.3461H66.6992C67.3845 36.3483 68.0624 36.2031 68.6866 35.9202C69.276 35.6422 69.8103 35.2602 70.264 34.7924ZM68.3002 32.1661C68.1996 32.4435 68.041 32.6963 67.8349 32.9075C67.6097 33.1247 67.3409 33.2914 67.0462 33.3965C66.7136 33.5214 66.3605 33.5829 66.0052 33.5779H65.737V28.8458H65.9973C66.35 28.8408 66.7005 28.9024 67.0304 29.0272C67.3145 29.1317 67.5721 29.2975 67.7847 29.5129C67.9974 29.7283 68.1599 29.9879 68.2608 30.2733C68.3739 30.5813 68.43 30.9074 68.4264 31.2355C68.4398 31.5559 68.3971 31.8762 68.3002 32.1819V32.1661Z" fill="#2A48DF"/>
<path d="M26.7595 35.0533C27.2473 35.536 27.8264 35.9167 28.463 36.1732C29.1571 36.4413 29.8958 36.5751 30.6398 36.5675V36.5675C31.191 36.5697 31.7401 36.4981 32.2723 36.3546C32.7842 36.2162 33.2731 36.0036 33.7235 35.7236C34.1838 35.447 34.5921 35.092 34.9301 34.6747C35.2727 34.2358 35.5392 33.7426 35.7188 33.2156C35.8586 32.815 35.9512 32.3995 35.9948 31.9774C35.9948 31.5515 36.0579 31.0704 36.0579 30.5499V30.2265H30.4032V32.4743H32.5641C32.4672 32.8584 32.2383 33.1962 31.9174 33.4286C31.761 33.5321 31.5874 33.6069 31.4048 33.6494C30.8664 33.7757 30.3023 33.7344 29.788 33.5311C29.5268 33.4161 29.2949 33.2436 29.1097 33.0264C28.9216 32.7924 28.7798 32.5247 28.6917 32.2377C28.5901 31.8976 28.5422 31.5436 28.5498 31.1887C28.5404 30.8073 28.5909 30.4267 28.6996 30.0609C28.8005 29.757 28.9555 29.4738 29.1571 29.2249C29.3428 29.0064 29.5744 28.8314 29.8353 28.7123C30.1148 28.5851 30.4195 28.5231 30.7265 28.5309V28.5309C31.0947 28.5235 31.4569 28.625 31.7676 28.8227C31.9559 28.9563 32.1165 29.125 32.2408 29.3196L35.1667 28.034C34.7698 27.365 34.2111 26.8063 33.5421 26.4093C32.6828 25.9368 31.7148 25.6975 30.7344 25.7153C29.9724 25.6985 29.2144 25.8298 28.5025 26.1018C27.8547 26.3472 27.2641 26.723 26.7674 27.2059C26.2799 27.6944 25.901 28.2803 25.6554 28.9252C25.3917 29.6233 25.258 30.3637 25.261 31.1099C25.2535 31.8616 25.3873 32.608 25.6554 33.3103C25.9009 33.9604 26.2766 34.5535 26.7595 35.0533V35.0533Z" fill="#2A48DF"/>
<path d="M79.7393 16C79.7393 11.5817 83.321 8 87.7393 8H175.739C180.158 8 183.739 11.5817 183.739 16V32C183.739 36.4183 180.158 40 175.739 40H79.7393V16Z" fill="#CEDBFC"/>
<path d="M89.2913 29L87.7553 17.8H89.4033L90.3313 25.944L91.7073 17.8H93.3713L94.7473 25.944L95.6753 17.8H97.3233L95.7873 29H93.8193L92.5393 21.08L91.2593 29H89.2913ZM102.133 29.192C101.376 29.192 100.698 29.0213 100.101 28.68C99.5037 28.3387 99.0343 27.8587 98.693 27.24C98.3517 26.6107 98.181 25.8747 98.181 25.032C98.181 24.1893 98.3517 23.4587 98.693 22.84C99.0343 22.2107 99.5037 21.7253 100.101 21.384C100.698 21.0427 101.381 20.872 102.149 20.872C102.917 20.872 103.594 21.0427 104.181 21.384C104.778 21.7253 105.242 22.2107 105.573 22.84C105.914 23.4587 106.085 24.1893 106.085 25.032C106.085 25.8747 105.914 26.6107 105.573 27.24C105.232 27.8587 104.762 28.3387 104.165 28.68C103.578 29.0213 102.901 29.192 102.133 29.192ZM102.133 27.576C102.538 27.576 102.912 27.4853 103.253 27.304C103.594 27.1227 103.866 26.8453 104.069 26.472C104.282 26.088 104.389 25.608 104.389 25.032C104.389 24.4453 104.282 23.9653 104.069 23.592C103.866 23.2187 103.594 22.9413 103.253 22.76C102.922 22.5787 102.554 22.488 102.149 22.488C101.744 22.488 101.37 22.5787 101.029 22.76C100.688 22.9413 100.41 23.2187 100.197 23.592C99.9943 23.9653 99.893 24.4453 99.893 25.032C99.893 25.9067 100.112 26.552 100.549 26.968C100.997 27.3733 101.525 27.576 102.133 27.576ZM108.159 29V27.528H110.095V23.064C110.095 22.712 109.924 22.536 109.583 22.536H108.319V21.064H110.223C110.66 21.064 111.017 21.192 111.295 21.448C111.572 21.6933 111.711 22.04 111.711 22.488V22.68H111.791C111.908 22.0827 112.159 21.6347 112.543 21.336C112.937 21.0267 113.508 20.872 114.255 20.872H115.487V22.664H113.759C113.129 22.664 112.644 22.8827 112.303 23.32C111.961 23.7573 111.791 24.28 111.791 24.888V27.528H114.255V29H108.159ZM118.089 29V17.48H119.785V24.392L122.825 21.064H124.953L121.641 24.584V24.712L125.385 29H123.321L119.785 24.92V29H118.089ZM127.218 32.52V31.032H128.514C128.888 31.032 129.154 30.952 129.314 30.792C129.485 30.6427 129.57 30.3867 129.57 30.024V22.504H127.554V21.064H129.57V19.96C129.57 19.0747 129.789 18.44 130.226 18.056C130.664 17.672 131.288 17.48 132.098 17.48H134.034V18.968H132.306C131.933 18.968 131.666 19.0427 131.506 19.192C131.346 19.3413 131.266 19.6027 131.266 19.976V21.064H134.034V22.504H131.266V30.04C131.266 30.9253 131.048 31.56 130.61 31.944C130.173 32.328 129.544 32.52 128.722 32.52H127.218ZM136.796 29V27.528H139.452V19.48C139.452 19.128 139.281 18.952 138.94 18.952H137.02V17.48H139.244C139.863 17.48 140.332 17.6453 140.652 17.976C140.983 18.296 141.148 18.7653 141.148 19.384V27.528H143.82V29H136.796ZM150.102 29.192C149.344 29.192 148.667 29.0213 148.07 28.68C147.472 28.3387 147.003 27.8587 146.662 27.24C146.32 26.6107 146.15 25.8747 146.15 25.032C146.15 24.1893 146.32 23.4587 146.662 22.84C147.003 22.2107 147.472 21.7253 148.07 21.384C148.667 21.0427 149.35 20.872 150.118 20.872C150.886 20.872 151.563 21.0427 152.15 21.384C152.747 21.7253 153.211 22.2107 153.542 22.84C153.883 23.4587 154.054 24.1893 154.054 25.032C154.054 25.8747 153.883 26.6107 153.542 27.24C153.2 27.8587 152.731 28.3387 152.134 28.68C151.547 29.0213 150.87 29.192 150.102 29.192ZM150.102 27.576C150.507 27.576 150.88 27.4853 151.222 27.304C151.563 27.1227 151.835 26.8453 152.038 26.472C152.251 26.088 152.358 25.608 152.358 25.032C152.358 24.4453 152.251 23.9653 152.038 23.592C151.835 23.2187 151.563 22.9413 151.222 22.76C150.891 22.5787 150.523 22.488 150.118 22.488C149.712 22.488 149.339 22.5787 148.998 22.76C148.656 22.9413 148.379 23.2187 148.166 23.592C147.963 23.9653 147.862 24.4453 147.862 25.032C147.862 25.9067 148.08 26.552 148.518 26.968C148.966 27.3733 149.494 27.576 150.102 27.576ZM156.752 29L155.024 21.064H156.688L157.648 26.632L158.784 21.064H160.608L161.744 26.632L162.704 21.064H164.368L162.64 29H160.896L159.696 23.272L158.496 29H156.752ZM169.353 29.192C168.308 29.192 167.476 28.9467 166.857 28.456C166.239 27.9653 165.887 27.3147 165.801 26.504H167.545C167.609 26.8773 167.796 27.1813 168.105 27.416C168.425 27.6507 168.847 27.768 169.369 27.768C169.871 27.768 170.255 27.6667 170.521 27.464C170.799 27.2507 170.937 27.0053 170.937 26.728C170.937 26.3227 170.772 26.0453 170.441 25.896C170.121 25.7467 169.647 25.6347 169.017 25.56C168.473 25.496 167.977 25.3733 167.529 25.192C167.092 25 166.745 24.744 166.489 24.424C166.233 24.0933 166.105 23.6827 166.105 23.192C166.105 22.4987 166.377 21.9387 166.921 21.512C167.465 21.0853 168.223 20.872 169.193 20.872C170.164 20.872 170.916 21.0907 171.449 21.528C171.983 21.9653 172.292 22.5627 172.377 23.32H170.745C170.703 23 170.537 22.7493 170.249 22.568C169.961 22.376 169.604 22.28 169.177 22.28C168.74 22.28 168.393 22.3653 168.137 22.536C167.881 22.696 167.753 22.9093 167.753 23.176C167.753 23.752 168.372 24.104 169.609 24.232C170.196 24.296 170.719 24.408 171.177 24.568C171.636 24.7173 171.999 24.9573 172.265 25.288C172.532 25.608 172.665 26.0613 172.665 26.648C172.676 27.128 172.537 27.56 172.249 27.944C171.972 28.328 171.583 28.632 171.081 28.856C170.591 29.08 170.015 29.192 169.353 29.192Z" fill="#002891"/>
</svg>
