<svg width="209" height="48" viewBox="0 0 209 48" fill="none" xmlns="http://www.w3.org/2000/svg">
<path d="M32.0224 22.3475L36.3759 12.0158L32.953 12.0079L30.8158 17.3472L28.71 12H25.2793L29.5933 22.3475H32.0224Z" fill="#6D93F6"/>
<path d="M43.9045 19.5638L40.9154 19.5559V18.5306L43.7389 18.5385V15.7702L40.9233 15.7623V14.7923H43.9124V12.0319L37.7765 12.0161L37.7607 22.3478H43.8966L43.9045 19.5638Z" fill="#6D93F6"/>
<path d="M49.5051 19.3904L51.4058 22.3558H55.3492L52.1945 18.2468C52.7017 18.0751 53.1482 17.7601 53.48 17.3398C53.8994 16.767 54.1133 16.0696 54.0873 15.3602C54.0901 14.9239 54.0125 14.4908 53.8586 14.0825C53.7127 13.6754 53.4797 13.305 53.176 12.9972C52.8722 12.6893 52.505 12.4514 52.0998 12.3001C51.6107 12.1179 51.0917 12.0296 50.5698 12.0399H46.3662V22.3558H49.5209L49.5051 19.3904ZM49.5051 14.611H49.6628C49.9966 14.5862 50.3292 14.6721 50.6092 14.8555C50.7014 14.9313 50.7739 15.0282 50.8206 15.1381C50.8673 15.2479 50.8868 15.3674 50.8774 15.4864C50.8873 15.6062 50.8672 15.7266 50.819 15.8367C50.7708 15.9468 50.696 16.0433 50.6014 16.1173C50.3211 16.2926 49.9928 16.3754 49.6628 16.3539H49.5051V14.611Z" fill="#6D93F6"/>
<path d="M61.7461 22.3549L61.754 17.4967L65.5948 12.0626L61.8092 12.0548L60.1924 14.4445L58.5678 12.0469H54.79L58.5993 17.4967L58.5914 22.3549H61.7461Z" fill="#6D93F6"/>
<path d="M48.1007 33.3103C48.3874 32.6372 48.5324 31.9124 48.5265 31.1808C48.532 30.4476 48.3898 29.7207 48.1085 29.0435C47.8348 28.3958 47.4354 27.8088 46.9334 27.3163C46.4142 26.8159 45.8001 26.4244 45.1274 26.1648C44.4066 25.8819 43.6382 25.74 42.8639 25.7468C42.0904 25.7405 41.3226 25.8797 40.6004 26.1569C39.9374 26.4111 39.3323 26.7963 38.8215 27.2896C38.3106 27.7828 37.9044 28.374 37.6271 29.0277C37.344 29.7018 37.1991 30.426 37.2013 31.1572C37.1973 31.8903 37.3394 32.6169 37.6193 33.2945C37.8961 33.9382 38.2952 34.5221 38.7944 35.0138C39.3053 35.519 39.9147 35.9136 40.5846 36.1732C41.309 36.453 42.0794 36.5948 42.856 36.5912C43.6269 36.5966 44.392 36.4575 45.1116 36.1811C45.783 35.9188 46.3966 35.5276 46.9177 35.0296C47.4225 34.541 47.8247 33.9564 48.1007 33.3103V33.3103ZM45.0722 32.1036C44.9479 32.3838 44.7681 32.636 44.5438 32.8449C44.3158 33.0604 44.0479 33.2292 43.7551 33.3418C43.4596 33.4516 43.1475 33.5103 42.8323 33.5153C42.5158 33.5161 42.2023 33.4545 41.9096 33.3339C41.617 33.2246 41.349 33.0584 41.1209 32.8449C40.897 32.619 40.7201 32.351 40.6004 32.0563C40.4909 31.7723 40.4399 31.4692 40.4506 31.165C40.4487 30.8443 40.5159 30.5268 40.6477 30.2344C40.8963 29.6712 41.3546 29.227 41.9254 28.9962C42.2188 28.8789 42.5322 28.8199 42.8481 28.8227V28.8227C43.4791 28.8166 44.0875 29.0572 44.5438 29.493C44.7658 29.7023 44.9429 29.9545 45.0643 30.2344C45.1927 30.5305 45.2571 30.8503 45.2536 31.1729C45.2597 31.4925 45.1979 31.8097 45.0722 32.1036V32.1036Z" fill="#6D93F6"/>
<path d="M60.6014 33.3262C60.8882 32.6531 61.0331 31.9283 61.0273 31.1967C61.0319 30.4661 60.8897 29.742 60.6093 29.0673C60.3355 28.4196 59.9361 27.8325 59.4342 27.3401C58.9131 26.842 58.2995 26.4508 57.6281 26.1886C56.9048 25.9051 56.1337 25.7632 55.3568 25.7706V25.7706C54.5829 25.7599 53.8142 25.8991 53.0933 26.1807C52.4227 26.4364 51.811 26.8255 51.2951 27.3243C50.7843 27.8283 50.3788 28.4288 50.102 29.0909C49.8252 29.7529 49.6826 30.4633 49.6826 31.1809C49.6826 31.8985 49.8252 32.609 50.102 33.271C50.3788 33.9331 50.7843 34.5336 51.2951 35.0376C51.8039 35.5359 52.4072 35.9274 53.0696 36.1891C53.793 36.4726 54.5641 36.6145 55.341 36.6071C56.1121 36.6158 56.8778 36.4766 57.5966 36.1969C58.2694 35.9412 58.8837 35.5522 59.4026 35.0534C59.915 34.5647 60.3229 33.9771 60.6014 33.3262ZM57.5729 32.1274C57.4486 32.4076 57.2689 32.6598 57.0445 32.8687C56.8165 33.0842 56.5486 33.253 56.2558 33.3656C55.9611 33.4772 55.6483 33.5334 55.3331 33.5312C55.0165 33.5425 54.7013 33.4832 54.4103 33.3577C54.1178 33.2484 53.8497 33.0822 53.6217 32.8687C53.3996 32.6413 53.223 32.3736 53.1012 32.08C52.9728 31.784 52.9083 31.4642 52.9119 31.1415C52.9079 30.8205 52.9753 30.5027 53.109 30.2109C53.2304 29.931 53.4075 29.6787 53.6296 29.4695C53.8569 29.2532 54.125 29.0843 54.4182 28.9726C54.7127 28.8592 55.0254 28.8004 55.341 28.7991V28.7991C55.6574 28.7991 55.9708 28.8607 56.2637 28.9805C56.5546 29.0934 56.822 29.2592 57.0524 29.4695C57.2772 29.6947 57.4542 29.963 57.5729 30.2582C57.6998 30.5534 57.7653 30.8714 57.7653 31.1928C57.7653 31.5141 57.6998 31.8321 57.5729 32.1274V32.1274Z" fill="#6D93F6"/>
<path d="M70.264 34.7929C70.7243 34.3161 71.0909 33.7569 71.3445 33.1446C71.6006 32.5268 71.7345 31.8653 71.7388 31.1965C71.739 30.5223 71.605 29.8547 71.3445 29.2327C71.0848 28.6264 70.7159 28.073 70.2561 27.6002C69.8055 27.1289 69.2704 26.7463 68.6788 26.4724C68.0556 26.1854 67.3774 26.0374 66.6913 26.0386H62.6533V36.3466H66.6992C67.3845 36.3488 68.0624 36.2036 68.6866 35.9207C69.276 35.6427 69.8103 35.2607 70.264 34.7929ZM68.3002 32.1666C68.1996 32.444 68.041 32.6968 67.8349 32.908C67.6097 33.1252 67.3409 33.2919 67.0462 33.397C66.7136 33.5219 66.3605 33.5834 66.0052 33.5784H65.737V28.8463H65.9973C66.35 28.8413 66.7005 28.9028 67.0304 29.0277C67.3145 29.1322 67.5721 29.298 67.7847 29.5134C67.9974 29.7288 68.1599 29.9884 68.2608 30.2738C68.3739 30.5818 68.43 30.9079 68.4264 31.236C68.4398 31.5564 68.3971 31.8767 68.3002 32.1824V32.1666Z" fill="#6D93F6"/>
<path d="M26.7595 35.0537C27.2473 35.5365 27.8264 35.9172 28.463 36.1737C29.1571 36.4418 29.8958 36.5756 30.6398 36.568V36.568C31.191 36.5702 31.7401 36.4986 32.2723 36.3551C32.7842 36.2167 33.2731 36.0041 33.7235 35.7241C34.1838 35.4475 34.5921 35.0925 34.9301 34.6752C35.2727 34.2363 35.5392 33.7431 35.7188 33.2161C35.8586 32.8155 35.9512 32.4 35.9948 31.9779C35.9948 31.552 36.0579 31.0709 36.0579 30.5504V30.227H30.4032V32.4748H32.5641C32.4672 32.8589 32.2383 33.1967 31.9174 33.4291C31.761 33.5326 31.5874 33.6074 31.4048 33.6499C30.8664 33.7762 30.3023 33.7349 29.788 33.5316C29.5268 33.4166 29.2949 33.2441 29.1097 33.0268C28.9216 32.7929 28.7798 32.5252 28.6917 32.2382C28.5901 31.898 28.5422 31.5441 28.5498 31.1892C28.5404 30.8078 28.5909 30.4272 28.6996 30.0614C28.8005 29.7575 28.9555 29.4742 29.1571 29.2254C29.3428 29.0069 29.5744 28.8318 29.8353 28.7128C30.1148 28.5856 30.4195 28.5235 30.7265 28.5314V28.5314C31.0947 28.524 31.4569 28.6255 31.7676 28.8232C31.9559 28.9567 32.1165 29.1255 32.2408 29.32L35.1667 28.0345C34.7698 27.3654 34.2111 26.8068 33.5421 26.4098C32.6828 25.9373 31.7148 25.698 30.7344 25.7158C29.9724 25.699 29.2144 25.8303 28.5025 26.1022C27.8547 26.3477 27.2641 26.7235 26.7674 27.2064C26.2799 27.6949 25.901 28.2808 25.6554 28.9257C25.3917 29.6237 25.258 30.3642 25.261 31.1104C25.2535 31.862 25.3873 32.6085 25.6554 33.3108C25.9009 33.9609 26.2766 34.554 26.7595 35.0537V35.0537Z" fill="#6D93F6"/>
<path d="M79.7393 16C79.7393 11.5817 83.321 8 87.7393 8H175.739C180.158 8 183.739 11.5817 183.739 16V32C183.739 36.4183 180.158 40 175.739 40H79.7393V16Z" fill="#CEDBFC"/>
<path d="M89.2913 29L87.7553 17.8H89.4033L90.3313 25.944L91.7073 17.8H93.3713L94.7473 25.944L95.6753 17.8H97.3233L95.7873 29H93.8193L92.5393 21.08L91.2593 29H89.2913ZM102.133 29.192C101.376 29.192 100.698 29.0213 100.101 28.68C99.5037 28.3387 99.0343 27.8587 98.693 27.24C98.3517 26.6107 98.181 25.8747 98.181 25.032C98.181 24.1893 98.3517 23.4587 98.693 22.84C99.0343 22.2107 99.5037 21.7253 100.101 21.384C100.698 21.0427 101.381 20.872 102.149 20.872C102.917 20.872 103.594 21.0427 104.181 21.384C104.778 21.7253 105.242 22.2107 105.573 22.84C105.914 23.4587 106.085 24.1893 106.085 25.032C106.085 25.8747 105.914 26.6107 105.573 27.24C105.232 27.8587 104.762 28.3387 104.165 28.68C103.578 29.0213 102.901 29.192 102.133 29.192ZM102.133 27.576C102.538 27.576 102.912 27.4853 103.253 27.304C103.594 27.1227 103.866 26.8453 104.069 26.472C104.282 26.088 104.389 25.608 104.389 25.032C104.389 24.4453 104.282 23.9653 104.069 23.592C103.866 23.2187 103.594 22.9413 103.253 22.76C102.922 22.5787 102.554 22.488 102.149 22.488C101.744 22.488 101.37 22.5787 101.029 22.76C100.688 22.9413 100.41 23.2187 100.197 23.592C99.9943 23.9653 99.893 24.4453 99.893 25.032C99.893 25.9067 100.112 26.552 100.549 26.968C100.997 27.3733 101.525 27.576 102.133 27.576ZM108.159 29V27.528H110.095V23.064C110.095 22.712 109.924 22.536 109.583 22.536H108.319V21.064H110.223C110.66 21.064 111.017 21.192 111.295 21.448C111.572 21.6933 111.711 22.04 111.711 22.488V22.68H111.791C111.908 22.0827 112.159 21.6347 112.543 21.336C112.937 21.0267 113.508 20.872 114.255 20.872H115.487V22.664H113.759C113.129 22.664 112.644 22.8827 112.303 23.32C111.961 23.7573 111.791 24.28 111.791 24.888V27.528H114.255V29H108.159ZM118.089 29V17.48H119.785V24.392L122.825 21.064H124.953L121.641 24.584V24.712L125.385 29H123.321L119.785 24.92V29H118.089ZM127.218 32.52V31.032H128.514C128.888 31.032 129.154 30.952 129.314 30.792C129.485 30.6427 129.57 30.3867 129.57 30.024V22.504H127.554V21.064H129.57V19.96C129.57 19.0747 129.789 18.44 130.226 18.056C130.664 17.672 131.288 17.48 132.098 17.48H134.034V18.968H132.306C131.933 18.968 131.666 19.0427 131.506 19.192C131.346 19.3413 131.266 19.6027 131.266 19.976V21.064H134.034V22.504H131.266V30.04C131.266 30.9253 131.048 31.56 130.61 31.944C130.173 32.328 129.544 32.52 128.722 32.52H127.218ZM136.796 29V27.528H139.452V19.48C139.452 19.128 139.281 18.952 138.94 18.952H137.02V17.48H139.244C139.863 17.48 140.332 17.6453 140.652 17.976C140.983 18.296 141.148 18.7653 141.148 19.384V27.528H143.82V29H136.796ZM150.102 29.192C149.344 29.192 148.667 29.0213 148.07 28.68C147.472 28.3387 147.003 27.8587 146.662 27.24C146.32 26.6107 146.15 25.8747 146.15 25.032C146.15 24.1893 146.32 23.4587 146.662 22.84C147.003 22.2107 147.472 21.7253 148.07 21.384C148.667 21.0427 149.35 20.872 150.118 20.872C150.886 20.872 151.563 21.0427 152.15 21.384C152.747 21.7253 153.211 22.2107 153.542 22.84C153.883 23.4587 154.054 24.1893 154.054 25.032C154.054 25.8747 153.883 26.6107 153.542 27.24C153.2 27.8587 152.731 28.3387 152.134 28.68C151.547 29.0213 150.87 29.192 150.102 29.192ZM150.102 27.576C150.507 27.576 150.88 27.4853 151.222 27.304C151.563 27.1227 151.835 26.8453 152.038 26.472C152.251 26.088 152.358 25.608 152.358 25.032C152.358 24.4453 152.251 23.9653 152.038 23.592C151.835 23.2187 151.563 22.9413 151.222 22.76C150.891 22.5787 150.523 22.488 150.118 22.488C149.712 22.488 149.339 22.5787 148.998 22.76C148.656 22.9413 148.379 23.2187 148.166 23.592C147.963 23.9653 147.862 24.4453 147.862 25.032C147.862 25.9067 148.08 26.552 148.518 26.968C148.966 27.3733 149.494 27.576 150.102 27.576ZM156.752 29L155.024 21.064H156.688L157.648 26.632L158.784 21.064H160.608L161.744 26.632L162.704 21.064H164.368L162.64 29H160.896L159.696 23.272L158.496 29H156.752ZM169.353 29.192C168.308 29.192 167.476 28.9467 166.857 28.456C166.239 27.9653 165.887 27.3147 165.801 26.504H167.545C167.609 26.8773 167.796 27.1813 168.105 27.416C168.425 27.6507 168.847 27.768 169.369 27.768C169.871 27.768 170.255 27.6667 170.521 27.464C170.799 27.2507 170.937 27.0053 170.937 26.728C170.937 26.3227 170.772 26.0453 170.441 25.896C170.121 25.7467 169.647 25.6347 169.017 25.56C168.473 25.496 167.977 25.3733 167.529 25.192C167.092 25 166.745 24.744 166.489 24.424C166.233 24.0933 166.105 23.6827 166.105 23.192C166.105 22.4987 166.377 21.9387 166.921 21.512C167.465 21.0853 168.223 20.872 169.193 20.872C170.164 20.872 170.916 21.0907 171.449 21.528C171.983 21.9653 172.292 22.5627 172.377 23.32H170.745C170.703 23 170.537 22.7493 170.249 22.568C169.961 22.376 169.604 22.28 169.177 22.28C168.74 22.28 168.393 22.3653 168.137 22.536C167.881 22.696 167.753 22.9093 167.753 23.176C167.753 23.752 168.372 24.104 169.609 24.232C170.196 24.296 170.719 24.408 171.177 24.568C171.636 24.7173 171.999 24.9573 172.265 25.288C172.532 25.608 172.665 26.0613 172.665 26.648C172.676 27.128 172.537 27.56 172.249 27.944C171.972 28.328 171.583 28.632 171.081 28.856C170.591 29.08 170.015 29.192 169.353 29.192Z" fill="#002891"/>
</svg>
