<svg width="105" height="32" viewBox="0 0 105 32" fill="none" xmlns="http://www.w3.org/2000/svg">
<path d="M0.739136 8C0.739136 3.58172 4.32086 0 8.73914 0H96.7391C101.157 0 104.739 3.58172 104.739 8V24C104.739 28.4183 101.157 32 96.7391 32H0.739136V8Z" fill="#CEDBFC"/>
<path d="M10.2911 21L8.75514 9.8H10.4031L11.3311 17.944L12.7071 9.8H14.3711L15.7471 17.944L16.6751 9.8H18.3231L16.7871 21H14.8191L13.5391 13.08L12.2591 21H10.2911ZM23.1329 21.192C22.3756 21.192 21.6982 21.0213 21.1009 20.68C20.5036 20.3387 20.0342 19.8587 19.6929 19.24C19.3516 18.6107 19.1809 17.8747 19.1809 17.032C19.1809 16.1893 19.3516 15.4587 19.6929 14.84C20.0342 14.2107 20.5036 13.7253 21.1009 13.384C21.6982 13.0427 22.3809 12.872 23.1489 12.872C23.9169 12.872 24.5942 13.0427 25.1809 13.384C25.7782 13.7253 26.2422 14.2107 26.5729 14.84C26.9142 15.4587 27.0849 16.1893 27.0849 17.032C27.0849 17.8747 26.9142 18.6107 26.5729 19.24C26.2316 19.8587 25.7622 20.3387 25.1649 20.68C24.5782 21.0213 23.9009 21.192 23.1329 21.192ZM23.1329 19.576C23.5382 19.576 23.9116 19.4853 24.2529 19.304C24.5942 19.1227 24.8662 18.8453 25.0689 18.472C25.2822 18.088 25.3889 17.608 25.3889 17.032C25.3889 16.4453 25.2822 15.9653 25.0689 15.592C24.8662 15.2187 24.5942 14.9413 24.2529 14.76C23.9222 14.5787 23.5542 14.488 23.1489 14.488C22.7436 14.488 22.3702 14.5787 22.0289 14.76C21.6876 14.9413 21.4102 15.2187 21.1969 15.592C20.9942 15.9653 20.8929 16.4453 20.8929 17.032C20.8929 17.9067 21.1116 18.552 21.5489 18.968C21.9969 19.3733 22.5249 19.576 23.1329 19.576ZM29.1586 21V19.528H31.0946V15.064C31.0946 14.712 30.924 14.536 30.5826 14.536H29.3186V13.064H31.2226C31.66 13.064 32.0173 13.192 32.2946 13.448C32.572 13.6933 32.7106 14.04 32.7106 14.488V14.68H32.7906C32.908 14.0827 33.1586 13.6347 33.5426 13.336C33.9373 13.0267 34.508 12.872 35.2546 12.872H36.4866V14.664H34.7586C34.1293 14.664 33.644 14.8827 33.3026 15.32C32.9613 15.7573 32.7906 16.28 32.7906 16.888V19.528H35.2546V21H29.1586ZM39.0884 21V9.48H40.7844V16.392L43.8244 13.064H45.9524L42.6404 16.584V16.712L46.3844 21H44.3204L40.7844 16.92V21H39.0884ZM48.2181 24.52V23.032H49.5141C49.8875 23.032 50.1541 22.952 50.3141 22.792C50.4848 22.6427 50.5701 22.3867 50.5701 22.024V14.504H48.5541V13.064H50.5701V11.96C50.5701 11.0747 50.7888 10.44 51.2261 10.056C51.6635 9.672 52.2875 9.48 53.0981 9.48H55.0341V10.968H53.3061C52.9328 10.968 52.6661 11.0427 52.5061 11.192C52.3461 11.3413 52.2661 11.6027 52.2661 11.976V13.064H55.0341V14.504H52.2661V22.04C52.2661 22.9253 52.0475 23.56 51.6101 23.944C51.1728 24.328 50.5435 24.52 49.7221 24.52H48.2181ZM57.7959 21V19.528H60.4519V11.48C60.4519 11.128 60.2812 10.952 59.9399 10.952H58.0199V9.48H60.2439C60.8626 9.48 61.3319 9.64533 61.6519 9.976C61.9826 10.296 62.1479 10.7653 62.1479 11.384V19.528H64.8199V21H57.7959ZM71.1016 21.192C70.3443 21.192 69.667 21.0213 69.0696 20.68C68.4723 20.3387 68.003 19.8587 67.6616 19.24C67.3203 18.6107 67.1496 17.8747 67.1496 17.032C67.1496 16.1893 67.3203 15.4587 67.6616 14.84C68.003 14.2107 68.4723 13.7253 69.0696 13.384C69.667 13.0427 70.3496 12.872 71.1176 12.872C71.8856 12.872 72.563 13.0427 73.1496 13.384C73.747 13.7253 74.211 14.2107 74.5416 14.84C74.883 15.4587 75.0536 16.1893 75.0536 17.032C75.0536 17.8747 74.883 18.6107 74.5416 19.24C74.2003 19.8587 73.731 20.3387 73.1336 20.68C72.547 21.0213 71.8696 21.192 71.1016 21.192ZM71.1016 19.576C71.507 19.576 71.8803 19.4853 72.2216 19.304C72.563 19.1227 72.835 18.8453 73.0376 18.472C73.251 18.088 73.3576 17.608 73.3576 17.032C73.3576 16.4453 73.251 15.9653 73.0376 15.592C72.835 15.2187 72.563 14.9413 72.2216 14.76C71.891 14.5787 71.523 14.488 71.1176 14.488C70.7123 14.488 70.339 14.5787 69.9976 14.76C69.6563 14.9413 69.379 15.2187 69.1656 15.592C68.963 15.9653 68.8616 16.4453 68.8616 17.032C68.8616 17.9067 69.0803 18.552 69.5176 18.968C69.9656 19.3733 70.4936 19.576 71.1016 19.576ZM77.7514 21L76.0234 13.064H77.6874L78.6474 18.632L79.7834 13.064H81.6074L82.7434 18.632L83.7034 13.064H85.3674L83.6394 21H81.8954L80.6954 15.272L79.4954 21H77.7514ZM90.3531 21.192C89.3078 21.192 88.4758 20.9467 87.8571 20.456C87.2385 19.9653 86.8865 19.3147 86.8011 18.504H88.5451C88.6091 18.8773 88.7958 19.1813 89.1051 19.416C89.4251 19.6507 89.8465 19.768 90.3691 19.768C90.8705 19.768 91.2545 19.6667 91.5211 19.464C91.7985 19.2507 91.9371 19.0053 91.9371 18.728C91.9371 18.3227 91.7718 18.0453 91.4411 17.896C91.1211 17.7467 90.6465 17.6347 90.0171 17.56C89.4731 17.496 88.9771 17.3733 88.5291 17.192C88.0918 17 87.7451 16.744 87.4891 16.424C87.2331 16.0933 87.1051 15.6827 87.1051 15.192C87.1051 14.4987 87.3771 13.9387 87.9211 13.512C88.4651 13.0853 89.2225 12.872 90.1931 12.872C91.1638 12.872 91.9158 13.0907 92.4491 13.528C92.9825 13.9653 93.2918 14.5627 93.3771 15.32H91.7451C91.7025 15 91.5371 14.7493 91.2491 14.568C90.9611 14.376 90.6038 14.28 90.1771 14.28C89.7398 14.28 89.3931 14.3653 89.1371 14.536C88.8811 14.696 88.7531 14.9093 88.7531 15.176C88.7531 15.752 89.3718 16.104 90.6091 16.232C91.1958 16.296 91.7185 16.408 92.1771 16.568C92.6358 16.7173 92.9985 16.9573 93.2651 17.288C93.5318 17.608 93.6651 18.0613 93.6651 18.648C93.6758 19.128 93.5371 19.56 93.2491 19.944C92.9718 20.328 92.5825 20.632 92.0811 20.856C91.5905 21.08 91.0145 21.192 90.3531 21.192Z" fill="#002891"/>
</svg>
